<svg width="270" height="122" viewBox="0 0 270 122" fill="none" xmlns="http://www.w3.org/2000/svg">
<path d="M33.5921 95.184C31.1254 95.184 29.0041 94.592 27.2281 93.408C25.4521 92.1254 24.0214 90.152 22.9361 87.488L1.47605 32.728C0.58805 30.36 0.292051 28.288 0.588051 26.512C0.982717 24.6373 1.92005 23.1573 3.40005 22.072C4.88005 20.9867 6.85338 20.444 9.32005 20.444C11.4907 20.444 13.2667 20.9867 14.6481 22.072C16.0294 23.0587 17.2134 24.9827 18.2001 27.844L36.1081 77.128H32.7041L51.2041 26.66C51.9934 24.4893 53.0294 22.9107 54.3121 21.924C55.6934 20.9373 57.4694 20.444 59.64 20.444C61.8107 20.444 63.5867 20.9867 64.9681 22.072C66.3494 23.0587 67.3854 24.588 68.0761 26.66L86.2801 77.128H83.1721L101.228 27.4C102.215 24.736 103.448 22.9107 104.928 21.924C106.507 20.9373 108.233 20.444 110.108 20.444C112.476 20.444 114.301 21.036 115.584 22.22C116.867 23.404 117.607 24.9333 117.804 26.808C118.001 28.584 117.656 30.5573 116.768 32.728L95.4561 87.488C94.4694 90.0534 93.0387 91.9773 91.1641 93.26C89.3881 94.5427 87.2667 95.184 84.8001 95.184C82.3334 95.184 80.1627 94.5427 78.2881 93.26C76.5121 91.9773 75.1307 90.0534 74.1441 87.488L54.7561 36.132H63.1921L44.2481 87.34C43.2614 90.004 41.8801 91.9773 40.104 93.26C38.328 94.5427 36.1574 95.184 33.5921 95.184Z" fill="white"/>
<path d="M140.972 121.824C138.012 121.824 135.743 121.035 134.164 119.456C132.585 117.877 131.796 115.559 131.796 112.5V29.768C131.796 26.7093 132.585 24.3907 134.164 22.812C135.743 21.2333 137.962 20.444 140.824 20.444C143.784 20.444 146.053 21.2333 147.632 22.812C149.21 24.3907 150 26.7093 150 29.768V41.312L148.372 36.872C149.852 31.84 152.861 27.7947 157.4 24.736C162.037 21.6773 167.414 20.148 173.532 20.148C179.846 20.148 185.372 21.6773 190.108 24.736C194.943 27.7947 198.692 32.136 201.356 37.76C204.02 43.2853 205.352 49.9453 205.352 57.74C205.352 65.436 204.02 72.1453 201.356 77.868C198.692 83.492 194.992 87.8333 190.256 90.892C185.52 93.9507 179.945 95.48 173.532 95.48C167.513 95.48 162.234 94 157.696 91.04C153.157 87.9813 150.098 84.0347 148.52 79.2H150.296V112.5C150.296 115.559 149.457 117.877 147.78 119.456C146.201 121.035 143.932 121.824 140.972 121.824ZM168.352 81.42C172.002 81.42 175.209 80.532 177.972 78.756C180.735 76.98 182.856 74.3654 184.336 70.912C185.914 67.36 186.704 62.9693 186.704 57.74C186.704 49.8467 185.026 43.976 181.672 40.128C178.317 36.1813 173.877 34.208 168.352 34.208C164.701 34.208 161.494 35.096 158.732 36.872C155.969 38.5493 153.799 41.164 152.22 44.716C150.74 48.1693 150 52.5107 150 57.74C150 65.5347 151.677 71.4547 155.032 75.5C158.386 79.4467 162.826 81.42 168.352 81.42Z" fill="white"/>
<path d="M232.108 46.46C230.759 46.46 229.624 46.092 228.704 45.356C227.845 44.5587 227.385 43.5467 227.324 42.32C227.324 41.0933 227.845 39.8053 228.888 38.456L243.792 20.056V25.484L229.808 8.28C228.704 6.93067 228.183 5.64266 228.244 4.416C228.305 3.18933 228.765 2.208 229.624 1.472C230.544 0.674664 231.679 0.276001 233.028 0.276001C234.439 0.276001 235.604 0.521331 236.524 1.012C237.505 1.50266 238.395 2.26933 239.192 3.312L250.232 17.48H246.184L257.316 3.312C258.175 2.26933 259.064 1.50266 259.984 1.012C260.904 0.521331 262.039 0.276001 263.388 0.276001C264.799 0.276001 265.933 0.674664 266.792 1.472C267.651 2.26933 268.08 3.28133 268.08 4.508C268.141 5.73466 267.62 7.02266 266.516 8.372L252.624 25.392V20.24L267.528 38.456C268.632 39.744 269.153 41.0013 269.092 42.228C269.031 43.4547 268.54 44.4667 267.62 45.264C266.761 46.0613 265.627 46.46 264.216 46.46C262.867 46.46 261.732 46.2147 260.812 45.724C259.892 45.2333 259.003 44.4667 258.144 43.424L246.184 28.336H250.048L238.18 43.424C237.383 44.4053 236.524 45.172 235.604 45.724C234.684 46.2147 233.519 46.46 232.108 46.46Z" fill="white"/>
</svg>
